<mxfile host="app.diagrams.net" agent="Mozilla/5.0 (Windows NT 10.0; Win64; x64) AppleWebKit/537.36 (KHTML, like Gecko) Chrome/131.0.0.0 Safari/537.36" version="25.0.3">
  <diagram name="Page-1" id="VmCHGTGx0lEumYuPZFVR">
    <mxGraphModel dx="955" dy="659" grid="1" gridSize="10" guides="1" tooltips="1" connect="1" arrows="1" fold="1" page="1" pageScale="1" pageWidth="850" pageHeight="1100" math="0" shadow="0">
      <root>
        <mxCell id="0" />
        <mxCell id="1" parent="0" />
        <mxCell id="464uXNkpgcQ80g2qc8aH-2" value="spring-aop 6.1.11" style="whiteSpace=wrap;html=1;rounded=1;fontFamily=Lucida Console;" vertex="1" parent="1">
          <mxGeometry x="399" y="560" width="160" height="40" as="geometry" />
        </mxCell>
        <mxCell id="464uXNkpgcQ80g2qc8aH-11" value="" style="edgeStyle=orthogonalEdgeStyle;rounded=0;orthogonalLoop=1;jettySize=auto;html=1;" edge="1" parent="1" source="464uXNkpgcQ80g2qc8aH-6" target="464uXNkpgcQ80g2qc8aH-8">
          <mxGeometry relative="1" as="geometry" />
        </mxCell>
        <mxCell id="464uXNkpgcQ80g2qc8aH-12" style="edgeStyle=orthogonalEdgeStyle;rounded=0;orthogonalLoop=1;jettySize=auto;html=1;exitX=0.25;exitY=1;exitDx=0;exitDy=0;" edge="1" parent="1" source="464uXNkpgcQ80g2qc8aH-6" target="464uXNkpgcQ80g2qc8aH-9">
          <mxGeometry relative="1" as="geometry" />
        </mxCell>
        <mxCell id="464uXNkpgcQ80g2qc8aH-13" style="edgeStyle=orthogonalEdgeStyle;rounded=0;orthogonalLoop=1;jettySize=auto;html=1;exitX=0.75;exitY=1;exitDx=0;exitDy=0;" edge="1" parent="1" source="464uXNkpgcQ80g2qc8aH-6" target="464uXNkpgcQ80g2qc8aH-10">
          <mxGeometry relative="1" as="geometry" />
        </mxCell>
        <mxCell id="464uXNkpgcQ80g2qc8aH-6" value="YOUR-CODEBASE (first-party code)" style="whiteSpace=wrap;html=1;rounded=1;fontFamily=Lucida Console;" vertex="1" parent="1">
          <mxGeometry x="199" y="160" width="560" height="40" as="geometry" />
        </mxCell>
        <mxCell id="464uXNkpgcQ80g2qc8aH-24" value="" style="edgeStyle=orthogonalEdgeStyle;rounded=0;orthogonalLoop=1;jettySize=auto;html=1;" edge="1" parent="1" source="464uXNkpgcQ80g2qc8aH-8" target="464uXNkpgcQ80g2qc8aH-14">
          <mxGeometry relative="1" as="geometry" />
        </mxCell>
        <mxCell id="464uXNkpgcQ80g2qc8aH-8" value="cal-date-picker 5.13" style="whiteSpace=wrap;html=1;rounded=1;fontFamily=Lucida Console;" vertex="1" parent="1">
          <mxGeometry x="399" y="240" width="160" height="40" as="geometry" />
        </mxCell>
        <mxCell id="464uXNkpgcQ80g2qc8aH-23" style="edgeStyle=orthogonalEdgeStyle;rounded=0;orthogonalLoop=1;jettySize=auto;html=1;entryX=0.25;entryY=0;entryDx=0;entryDy=0;exitX=0.5;exitY=1;exitDx=0;exitDy=0;" edge="1" parent="1" source="464uXNkpgcQ80g2qc8aH-9" target="464uXNkpgcQ80g2qc8aH-2">
          <mxGeometry relative="1" as="geometry" />
        </mxCell>
        <mxCell id="464uXNkpgcQ80g2qc8aH-9" value="popular-widget 7.1" style="whiteSpace=wrap;html=1;rounded=1;fontFamily=Lucida Console;" vertex="1" parent="1">
          <mxGeometry x="199" y="240" width="160" height="40" as="geometry" />
        </mxCell>
        <mxCell id="464uXNkpgcQ80g2qc8aH-16" value="" style="edgeStyle=orthogonalEdgeStyle;rounded=0;orthogonalLoop=1;jettySize=auto;html=1;" edge="1" parent="1" source="464uXNkpgcQ80g2qc8aH-10" target="464uXNkpgcQ80g2qc8aH-15">
          <mxGeometry relative="1" as="geometry" />
        </mxCell>
        <mxCell id="464uXNkpgcQ80g2qc8aH-10" value="county-dropdown 1.2" style="whiteSpace=wrap;html=1;rounded=1;fontFamily=Lucida Console;" vertex="1" parent="1">
          <mxGeometry x="599" y="240" width="160" height="40" as="geometry" />
        </mxCell>
        <mxCell id="464uXNkpgcQ80g2qc8aH-25" style="edgeStyle=orthogonalEdgeStyle;rounded=0;orthogonalLoop=1;jettySize=auto;html=1;" edge="1" parent="1" source="464uXNkpgcQ80g2qc8aH-14" target="464uXNkpgcQ80g2qc8aH-2">
          <mxGeometry relative="1" as="geometry" />
        </mxCell>
        <mxCell id="464uXNkpgcQ80g2qc8aH-14" value="rincon-box 4.29" style="whiteSpace=wrap;html=1;rounded=1;fontFamily=Lucida Console;" vertex="1" parent="1">
          <mxGeometry x="399" y="320" width="160" height="40" as="geometry" />
        </mxCell>
        <mxCell id="464uXNkpgcQ80g2qc8aH-18" value="" style="edgeStyle=orthogonalEdgeStyle;rounded=0;orthogonalLoop=1;jettySize=auto;html=1;" edge="1" parent="1" source="464uXNkpgcQ80g2qc8aH-15" target="464uXNkpgcQ80g2qc8aH-17">
          <mxGeometry relative="1" as="geometry" />
        </mxCell>
        <mxCell id="464uXNkpgcQ80g2qc8aH-15" value="marquee-text 1.0" style="whiteSpace=wrap;html=1;rounded=1;fontFamily=Lucida Console;" vertex="1" parent="1">
          <mxGeometry x="599" y="320" width="160" height="40" as="geometry" />
        </mxCell>
        <mxCell id="464uXNkpgcQ80g2qc8aH-22" value="" style="edgeStyle=orthogonalEdgeStyle;rounded=0;orthogonalLoop=1;jettySize=auto;html=1;" edge="1" parent="1" source="464uXNkpgcQ80g2qc8aH-17" target="464uXNkpgcQ80g2qc8aH-21">
          <mxGeometry relative="1" as="geometry" />
        </mxCell>
        <mxCell id="464uXNkpgcQ80g2qc8aH-17" value="java-testing 0.8" style="whiteSpace=wrap;html=1;rounded=1;fontFamily=Lucida Console;" vertex="1" parent="1">
          <mxGeometry x="599" y="400" width="160" height="40" as="geometry" />
        </mxCell>
        <mxCell id="464uXNkpgcQ80g2qc8aH-26" style="edgeStyle=orthogonalEdgeStyle;rounded=0;orthogonalLoop=1;jettySize=auto;html=1;entryX=0.75;entryY=0;entryDx=0;entryDy=0;" edge="1" parent="1" source="464uXNkpgcQ80g2qc8aH-21" target="464uXNkpgcQ80g2qc8aH-2">
          <mxGeometry relative="1" as="geometry" />
        </mxCell>
        <mxCell id="464uXNkpgcQ80g2qc8aH-21" value="rats-nest 5.41" style="whiteSpace=wrap;html=1;rounded=1;fontFamily=Lucida Console;" vertex="1" parent="1">
          <mxGeometry x="599" y="480" width="160" height="40" as="geometry" />
        </mxCell>
        <mxCell id="464uXNkpgcQ80g2qc8aH-27" value="TRANSITIVE DEPENDENCIES" style="text;html=1;align=left;verticalAlign=middle;whiteSpace=wrap;rounded=0;" vertex="1" parent="1">
          <mxGeometry x="40" y="400" width="120" height="40" as="geometry" />
        </mxCell>
        <mxCell id="464uXNkpgcQ80g2qc8aH-28" value="DIRECT DEPENDENCIES" style="text;html=1;align=left;verticalAlign=middle;whiteSpace=wrap;rounded=0;" vertex="1" parent="1">
          <mxGeometry x="40" y="240" width="120" height="40" as="geometry" />
        </mxCell>
      </root>
    </mxGraphModel>
  </diagram>
</mxfile>
